#!OML:ASF H:\IndianDance\Patient Classification 1\Patient 1\Session 1\dancer.ASF
:FULLY-SPECIFIED
:DEGREES
3616
root -0.0688492 15.522 17.152 -170.865 15.6647 -176.117
lowerback 1.10068 4.64492 5.13093
upperback 1.40231 6.26516 0.508377
thorax 1.31912 3.20717 -2.29858
lowerneck -18.3494 -1.09401 0.646227
upperneck 30.552 -1.44534 4.3599
head 13.3994 0.693912 1.51674
rclavicle -6.50026e-014 -4.77083e-015
rhumerus -32.4331 -13.5288 -78.5251
rradius 29.0681
rwrist 1.61433
rhand -17.0804 8.88933
rfingers 7.12502
rthumb 9.15774 -20.8918
lclavicle -6.50026e-014 -4.77083e-015
lhumerus -25.7238 -41.8709 63.4505
lradius 139.754
lwrist 50.3315
lhand 29.2155 -363.265
lfingers 7.12502
lthumb 53.0002 16.2274
rfemur -9.43872 -2.14401 32.2158
rtibia 24.4683
rfoot -16.1125 -12.787
rtoes 2.74206
lfemur -36.869 -0.132281 -15.5806
ltibia 34.68
lfoot -8.98979 -1.5706
ltoes 1.48583
3617
root -0.0436518 15.5245 17.0571 -170.835 15.7477 -176.039
lowerback 1.04767 4.67399 5.11738
upperback 1.45674 6.30057 0.526424
thorax 1.40413 3.22806 -2.26403
lowerneck -18.3195 -1.09755 0.615076
upperneck 30.5888 -1.43357 4.36791
head 13.4085 0.699567 1.52862
rclavicle 3.38928e-014 2.28602e-014
rhumerus -32.4777 -13.6121 -78.4168
rradius 28.9128
rwrist 1.76247
rhand -17.1739 9.00011
rfingers 7.12502
rthumb 9.06755 -20.785
lclavicle 3.38928e-014 2.28602e-014
lhumerus -25.2247 -42.1684 63.083
lradius 140.043
lwrist 50.2729
lhand 26.8466 -363.259
lfingers 7.12502
lthumb 50.8509 17.5056
rfemur -8.68644 -2.12397 32.2489
rtibia 23.7975
rfoot -16.0037 -12.7389
rtoes 2.4353
lfemur -37.048 0.0846425 -15.7054
ltibia 32.8527
lfoot -8.90372 -1.51773
ltoes 0.93707
3618
root -0.0178104 15.5263 16.9609 -170.816 15.8335 -175.951
lowerback 0.99166 4.7005 5.0959
upperback 1.51959 6.33253 0.55317
thorax 1.49731 3.24752 -2.21555
lowerneck -18.2972 -1.09713 0.582506
upperneck 30.6313 -1.41539 4.37452
head 13.4215 0.707779 1.54149
rclavicle 6.85807e-014 2.22639e-014
rhumerus -32.5208 -13.6966 -78.3118
rradius 28.7568
rwrist 1.90796
rhand -17.2707 9.10672
rfingers 7.12502
rthumb 8.97409 -20.6824
lclavicle 6.85807e-014 2.22639e-014
lhumerus -24.7039 -42.4386 62.7089
lradius 140.316
lwrist 50.1684
lhand 24.7155 -363.226
lfingers 7.12502
lthumb 48.8998 18.5554
rfemur -7.8947 -2.09686 32.29
rtibia 23.0949
rfoot -15.8668 -12.6946
rtoes 2.03493
lfemur -37.1889 0.290503 -15.812
ltibia 31.0739
lfoot -8.90822 -1.29443
ltoes 0.470586
3619
root 0.008601 15.5273 16.8631 -170.803 15.9217 -175.845
lowerback 0.932441 4.72179 5.0768
upperback 1.58949 6.35756 0.58931
thorax 1.59816 3.2639 -2.15818
lowerneck -18.2802 -1.09115 0.546998
upperneck 30.6758 -1.38835 4.3798
head 13.4362 0.719126 1.55585
rclavicle -1.04412e-013 -5.56597e-015
rhumerus -32.5583 -13.7567 -78.2212
rradius 28.5998
rwrist 2.03439
rhand -17.348 9.20713
rfingers 7.12502
rthumb 8.89955 -20.5852
lclavicle -1.04412e-013 -5.56597e-015
lhumerus -24.1707 -42.6756 62.3257
lradius 140.585
lwrist 50.0452
lhand 22.7712 -363.153
lfingers 7.12502
lthumb 47.1074 19.466
rfemur -7.06763 -2.06704 32.3471
rtibia 22.3618
rfoot -15.7038 -12.6464
rtoes 1.54859
lfemur -37.3062 0.465661 -15.8809
ltibia 29.3704
lfoot -8.99069 -0.920834
ltoes 0.177986
3620
root 0.0349604 15.5272 16.764 -170.793 16.0158 -175.724
lowerback 0.869003 4.74086 5.06646
upperback 1.66433 6.37957 0.630036
thorax 1.70665 3.27918 -2.10021
lowerneck -18.2685 -1.08126 0.511434
upperneck 30.7202 -1.35644 4.38508
head 13.4519 0.732314 1.57102
rclavicle 4.59193e-014 6.36111e-015
rhumerus -32.5913 -13.8257 -78.1366
rradius 28.4387
rwrist 2.17269
rhand -17.3979 9.29898
rfingers 7.12502
rthumb 8.85142 -20.4954
lclavicle 4.59193e-014 6.36111e-015
lhumerus -23.6178 -42.8793 61.9242
lradius 140.856
lwrist 49.9432
lhand 20.9336 -363.03
lfingers 7.12502
lthumb 45.4037 20.3086
rfemur -6.21932 -2.0452 32.4157
rtibia 21.61
rfoot -15.5095 -12.5909
rtoes 0.946379
lfemur -37.415 0.586821 -15.9023
ltibia 27.7693
lfoot -9.15327 -0.386572
ltoes 0.17312
3621
root 0.0608582 15.5262 16.6638 -170.775 16.1167 -175.579
lowerback 0.798552 4.75761 5.07986
upperback 1.74106 6.39829 0.67432
thorax 1.823 3.2934 -2.05074
lowerneck -18.2592 -1.06624 0.480177
upperneck 30.759 -1.31861 4.38649
head 13.4655 0.7474 1.58465
rclavicle 3.03147e-014 1.43125e-014
rhumerus -32.6167 -13.8892 -78.062
rradius 28.2734
rwrist 2.31141
rhand -17.4427 9.37286
rfingers 7.12502
rthumb 8.80819 -20.4233
lclavicle 3.03147e-014 1.43125e-014
lhumerus -23.0473 -43.0302 61.5048
lradius 141.136
lwrist 49.9012
lhand 19.139 -362.796
lfingers 7.12502
lthumb 43.7322 21.1864
rfemur -5.36648 -2.00453 32.5037
rtibia 20.8542
rfoot -15.2959 -12.5355
rtoes 0.312751
lfemur -37.5305 0.616202 -15.8467
ltibia 26.295
lfoot -9.39902 0.322253
ltoes 0.502036
3622
root 0.085485 15.524 16.5624 -170.743 16.2264 -175.413
lowerback 0.719062 4.77344 5.12892
upperback 1.81623 6.41528 0.716399
thorax 1.94695 3.30747 -2.02204
lowerneck -18.2481 -1.0476 0.455005
upperneck 30.7908 -1.27768 4.38533
head 13.4756 0.763588 1.5964
rclavicle 1.23048e-013 -7.55382e-015
rhumerus -32.6326 -13.9436 -78.0026
rradius 28.1018
rwrist 2.4432
rhand -17.4702 9.42562
rfingers 7.12502
rthumb 8.7816 -20.3717
lclavicle 1.23048e-013 -7.55382e-015
lhumerus -22.4556 -43.1148 61.0562
lradius 141.428
lwrist 49.9428
lhand 17.3379 -362.469
lfingers 7.12502
lthumb 42.0476 22.1049
rfemur -4.53045 -1.97352 32.6033
rtibia 20.1127
rfoot -15.074 -12.4532
rtoes -0.344453
lfemur -37.6666 0.548009 -15.7149
ltibia 24.9666
lfoot -9.72112 1.20648
ltoes 0.903002
3623
root 0.108362 15.5206 16.4602 -170.692 16.3466 -175.233
lowerback 0.633635 4.79104 5.21492
upperback 1.88597 6.43411 0.752474
thorax 2.07371 3.32308 -2.01905
lowerneck -18.2363 -1.02809 0.429843
upperneck 30.8183 -1.23655 4.38528
head 13.4837 0.779656 1.60844
rclavicle -5.46658e-015 1.0138e-014
rhumerus -32.6461 -13.9926 -77.9543
rradius 27.9295
rwrist 2.57407
rhand -17.5005 9.45615
rfingers 7.12502
rthumb 8.75233 -20.3424
lclavicle -5.46658e-015 1.0138e-014
lhumerus -21.8456 -43.1231 60.5796
lradius 141.729
lwrist 50.0706
lhand 15.5215 -362.068
lfingers 7.12502
lthumb 40.3424 23.054
rfemur -3.72864 -1.97358 32.7037
rtibia 19.4049
rfoot -14.8539 -12.3246
rtoes -1.01756
lfemur -37.8265 0.36779 -15.5032
ltibia 23.7951
lfoot -10.1213 2.25794
ltoes 1.47619
3624
root 0.129544 15.516 16.357 -170.624 16.475 -175.041
lowerback 0.541155 4.80928 5.3357
upperback 1.94952 6.45301 0.780549
thorax 2.20302 3.33935 -2.04261
lowerneck -18.2208 -1.00848 0.40212
upperneck 30.8399 -1.19639 4.38978
head 13.4885 0.795259 1.62231
rclavicle 3.29486e-014 -1.27222e-014
rhumerus -32.6537 -14.0524 -77.917
rradius 27.7462
rwrist 2.72533
rhand -17.4926 9.48459
rfingers 7.12502
rthumb 8.75999 -20.3136
lclavicle 3.29486e-014 -1.27222e-014
lhumerus -21.2179 -43.0342 60.0771
lradius 142.032
lwrist 50.2675
lhand 13.7173 -361.601
lfingers 7.12502
lthumb 38.643 24.0199
rfemur -2.97271 -1.97018 32.8038
rtibia 18.7549
rfoot -14.6451 -12.1841
rtoes -1.67786
lfemur -38.0047 0.0972023 -15.2255
ltibia 22.7804
lfoot -10.5836 3.42423
ltoes 2.21064
3625
root 0.149434 15.51 16.2529 -170.548 16.6112 -174.851
lowerback 0.44795 4.82592 5.47181
upperback 2.00872 6.46925 0.801692
thorax 2.33075 3.35458 -2.08168
lowerneck -18.2036 -0.986766 0.370376
upperneck 30.8593 -1.15277 4.3961
head 13.492 0.811906 1.63806
rclavicle -9.59136e-015 1.39149e-014
rhumerus -32.6586 -14.0925 -77.8957
rradius 27.5613
rwrist 2.8772
rhand -17.481 9.50267
rfingers 7.12502
rthumb 8.77117 -20.2951
lclavicle -9.59136e-015 1.39149e-014
lhumerus -20.5885 -42.8409 59.565
lradius 142.323
lwrist 50.4895
lhand 11.976 -361.12
lfingers 7.12502
lthumb 36.998 24.9452
rfemur -2.2603 -1.97828 32.891
rtibia 18.1749
rfoot -14.456 -12.024
rtoes -2.33111
lfemur -38.1827 -0.223292 -14.9134
ltibia 21.9163
lfoot -11.0891 4.63508
ltoes 3.07148
3626
root 0.167615 15.503 16.148 -170.465 16.7548 -174.67
lowerback 0.357105 4.84058 5.62304
upperback 2.06228 6.48246 0.812742
thorax 2.45418 3.36853 -2.13976
lowerneck -18.1867 -0.96392 0.327384
upperneck 30.8805 -1.10558 4.40811
head 13.4962 0.829574 1.65866
rclavicle 2.20154e-014 -4.17448e-015
rhumerus -32.6581 -14.137 -77.8801
rradius 27.3643
rwrist 3.06371
rhand -17.4888 9.52164
rfingers 7.12502
rthumb 8.76369 -20.2764
lclavicle 2.20154e-014 -4.17448e-015
lhumerus -19.9629 -42.547 59.0598
lradius 142.587
lwrist 50.6931
lhand 10.3547 -360.668
lfingers 7.12502
lthumb 35.4627 25.7791
rfemur -1.59958 -2.00912 32.9528
rtibia 17.6726
rfoot -14.2915 -11.829
rtoes -2.96935
lfemur -38.3497 -0.562487 -14.5955
ltibia 21.1906
lfoot -11.595 5.83207
ltoes 3.8445
